<?xml version="1.0" standalone="no"?>
<!DOCTYPE svg PUBLIC "-//W3C//DTD SVG 20010904//EN"
 "http://www.w3.org/TR/2001/REC-SVG-20010904/DTD/svg10.dtd">
<svg version="1.0" xmlns="http://www.w3.org/2000/svg"
 width="1280.000000pt" height="720.000000pt" viewBox="0 0 1280.000000 720.000000"
 preserveAspectRatio="xMidYMid meet">
<metadata>
Created by potrace 1.16, written by Peter Selinger 2001-2019
</metadata>
<g transform="translate(0.000000,720.000000) scale(0.100000,-0.100000)"
fill="#000000" stroke="none">
<path d="M2670 5073 c0 -14 15 -240 46 -710 3 -55 10 -93 16 -93 12 0 12 1
-22 485 -11 160 -20 300 -20 313 0 12 -4 22 -10 22 -5 0 -10 -7 -10 -17z"/>
<path d="M2830 4544 c0 -361 3 -543 10 -539 6 4 10 197 10 546 0 353 -3 539
-10 539 -7 0 -10 -189 -10 -546z"/>
<path d="M3160 5070 c0 -25 -38 -741 -44 -844 -4 -51 -2 -76 4 -70 10 10 16
64 25 229 3 61 12 238 20 394 18 338 17 311 5 311 -5 0 -10 -9 -10 -20z"/>
<path d="M6030 4111 c-128 -42 -198 -154 -188 -300 6 -76 31 -131 80 -178 51
-48 102 -65 193 -66 138 -2 236 62 269 174 43 145 -10 290 -128 351 -45 23
-179 34 -226 19z m144 -16 c41 -27 68 -108 74 -217 8 -168 -25 -276 -92 -298
-109 -36 -173 75 -163 284 6 126 19 176 58 217 31 33 84 39 123 14z"/>
<path d="M11735 4106 c-63 -27 -115 -124 -100 -184 14 -55 46 -82 162 -139 64
-30 124 -64 134 -74 24 -24 25 -80 1 -109 -39 -48 -155 -34 -223 27 -45 41
-65 74 -78 130 -7 30 -9 12 -9 -77 -1 -78 2 -108 8 -92 12 29 40 28 115 -3
113 -46 239 -25 284 48 44 72 35 153 -22 207 -18 16 -76 49 -130 72 -120 52
-147 74 -147 122 0 71 88 98 177 55 48 -23 76 -57 91 -109 9 -30 10 -22 11 54
1 80 -1 88 -13 71 -14 -19 -16 -19 -79 -2 -77 20 -140 21 -182 3z"/>
<path d="M4273 4103 l27 -4 0 -259 0 -259 -27 -4 c-16 -2 74 -5 200 -6 l227
-1 -1 93 c-1 50 -4 81 -6 67 -17 -107 -57 -141 -175 -148 l-78 -5 0 137 0 136
33 0 c63 0 106 -19 113 -48 11 -51 12 -47 12 48 0 69 -2 86 -8 61 -10 -44 -23
-51 -92 -51 l-58 0 0 120 0 120 70 0 c73 0 125 -15 148 -43 8 -9 17 -37 22
-64 7 -45 8 -42 9 35 l1 82 -222 -1 c-123 -1 -211 -4 -195 -6z"/>
<path d="M4793 4089 l27 -21 0 -243 0 -244 -27 -4 c-16 -2 6 -4 47 -4 41 0 56
2 33 4 l-43 4 0 225 c0 123 4 224 8 224 4 0 93 -106 197 -236 l190 -235 3 270
2 270 38 4 c20 2 1 4 -43 4 -44 0 -63 -2 -42 -4 l37 -4 0 -156 c0 -184 17
-187 -155 21 l-120 145 -90 0 -90 0 28 -20z"/>
<path d="M5570 4101 l25 -7 0 -195 c-1 -130 -5 -206 -14 -231 -17 -52 -53 -78
-110 -79 -44 -1 -45 -1 -16 -10 41 -13 131 -3 180 21 22 11 51 36 65 57 24 35
25 42 28 239 l3 203 27 4 c15 2 -27 4 -93 5 -66 0 -109 -3 -95 -7z"/>
<path d="M6462 4103 c23 -4 40 -27 112 -152 l86 -148 0 -111 c0 -97 -2 -111
-17 -115 -10 -3 32 -5 92 -4 61 0 100 2 88 4 -22 4 -23 8 -23 125 l0 121 72
138 c70 134 74 138 108 142 19 2 -3 4 -50 4 -47 0 -66 -2 -43 -4 l42 -4 -62
-125 c-34 -68 -66 -123 -71 -121 -10 3 -136 223 -136 237 0 5 10 11 23 13 12
2 -39 4 -113 4 -74 0 -123 -2 -108 -4z"/>
<path d="M7303 4103 l27 -4 0 -259 0 -259 -27 -4 c-16 -2 74 -5 200 -6 l227
-1 -1 93 -1 92 -13 -53 c-21 -91 -70 -122 -187 -122 l-58 0 0 135 0 135 33 0
c63 0 106 -19 113 -48 11 -51 12 -47 12 48 0 72 -2 88 -9 65 -12 -42 -35 -55
-96 -55 l-53 0 0 120 0 120 70 0 c116 0 152 -24 170 -113 7 -37 8 -32 9 41 l1
82 -222 -1 c-123 -1 -211 -4 -195 -6z"/>
<path d="M7818 4090 l32 -20 0 -244 0 -245 -32 -4 c-18 -2 3 -4 47 -4 44 0 61
2 38 4 l-43 4 0 225 c0 128 4 224 9 222 5 -1 94 -108 197 -237 l189 -234 3
271 2 271 38 4 c20 2 -1 4 -48 4 -47 0 -66 -2 -42 -4 l42 -4 0 -155 c0 -98 -4
-153 -10 -149 -5 3 -68 75 -140 160 l-131 155 -92 0 -92 0 33 -20z"/>
<path d="M8381 4028 c1 -46 3 -72 5 -58 12 75 25 102 59 116 19 8 53 14 75 14
l40 0 0 -259 0 -260 -37 -4 c-21 -2 27 -4 107 -4 80 0 128 2 108 4 l-38 4 0
260 0 259 43 0 c54 0 110 -28 119 -60 4 -14 11 -41 16 -60 9 -30 10 -24 11 48
l1 82 -255 0 -255 0 1 -82z"/>
<path d="M8973 4103 l27 -4 0 -259 0 -259 -27 -4 c-16 -2 74 -5 200 -6 l227
-1 -1 93 c-1 79 -2 86 -9 46 -16 -94 -51 -120 -172 -127 l-78 -5 0 138 0 138
61 -7 c66 -6 89 -18 89 -45 0 -9 5 -23 10 -31 7 -10 9 15 9 80 -1 94 -1 95
-16 60 -20 -46 -27 -50 -95 -50 l-58 0 0 120 0 120 70 0 c116 0 160 -28 171
-109 5 -39 7 -33 8 37 l1 82 -222 -1 c-123 -1 -211 -4 -195 -6z"/>
<path d="M9503 4103 l27 -4 0 -259 0 -259 -27 -4 c-16 -2 26 -4 92 -4 66 0
108 2 93 4 l-28 4 0 125 0 124 40 0 c48 0 75 -26 85 -78 3 -21 17 -61 31 -90
32 -65 73 -89 170 -97 l69 -7 -32 26 c-21 18 -38 46 -52 89 -30 90 -55 125
-104 147 -42 19 -41 22 17 35 16 3 41 19 57 35 24 24 29 37 29 78 0 60 -22 92
-82 118 -36 15 -75 18 -228 20 -102 1 -173 0 -157 -3z m264 -18 c46 -18 61
-41 69 -98 13 -90 -40 -147 -136 -147 l-40 0 0 130 0 130 35 0 c19 0 52 -7 72
-15z"/>
<path d="M10133 4103 l27 -4 -2 -257 -3 -256 -25 -7 c-14 -4 29 -7 95 -7 66 1
108 3 93 5 l-28 4 0 88 0 88 75 6 c89 7 155 35 187 80 18 25 23 46 23 94 0 73
-19 105 -86 143 -42 24 -52 25 -214 26 -93 1 -158 0 -142 -3z m262 -27 c62
-41 60 -251 -3 -285 -11 -6 -38 -13 -61 -17 l-41 -7 0 168 0 168 40 -6 c23 -3
52 -12 65 -21z"/>
<path d="M10673 4103 l27 -4 0 -259 0 -259 -27 -4 c-16 -2 26 -4 92 -4 66 0
108 2 93 4 l-28 4 0 125 0 124 38 0 c49 0 75 -27 91 -95 29 -117 78 -160 197
-170 l69 -7 -32 26 c-20 17 -38 45 -49 79 -36 111 -82 166 -139 168 l-20 0 20
9 c11 5 33 11 49 15 16 3 42 20 58 37 35 38 40 111 8 150 -40 51 -88 62 -290
64 -102 1 -173 0 -157 -3z m266 -19 c30 -12 43 -25 55 -55 43 -107 -10 -189
-124 -189 l-40 0 0 130 0 130 35 0 c19 0 52 -7 74 -16z"/>
<path d="M11303 4103 l27 -4 -2 -257 -3 -256 -25 -7 c-14 -4 29 -7 95 -7 66 1
108 3 93 5 l-28 4 0 259 0 259 28 4 c15 2 -27 4 -93 4 -66 0 -108 -2 -92 -4z"/>
<path d="M12163 4103 l27 -4 0 -259 0 -259 -27 -4 c-16 -2 74 -5 200 -6 l227
-1 -1 93 c-1 79 -2 86 -9 46 -16 -94 -51 -120 -172 -127 l-78 -5 0 138 0 138
61 -7 c72 -7 84 -15 95 -59 8 -31 8 -31 12 16 1 26 1 68 0 95 -4 46 -4 47 -12
14 -11 -42 -31 -52 -100 -52 l-56 0 0 120 0 120 70 0 c116 0 170 -36 170 -112
0 -21 5 -38 10 -38 6 0 10 33 10 80 l0 80 -227 -1 c-126 -1 -216 -4 -200 -6z"/>
<path d="M2706 3909 c-4 -14 -26 -704 -26 -816 0 -35 4 -63 8 -63 10 0 38 877
29 887 -4 3 -8 0 -11 -8z"/>
<path d="M2830 3421 c0 -254 4 -391 10 -391 6 0 10 135 10 384 0 246 -4 387
-10 391 -7 4 -10 -127 -10 -384z"/>
<path d="M5379 3780 c-45 -26 -48 -119 -5 -159 l23 -22 -4 25 c-4 21 0 28 23
37 64 24 83 70 44 109 -21 21 -55 25 -81 10z"/>
</g>
</svg>
